<?xml version="1.0" standalone="no"?>
<!DOCTYPE svg PUBLIC "-//W3C//DTD SVG 1.1//EN" "http://www.w3.org/Graphics/SVG/1.1/DTD/svg11.dtd">
<svg xmlns="http://www.w3.org/2000/svg" xmlns:xlink="http://www.w3.org/1999/xlink" version="1.1" id="Layer_1" x="0px" y="0px" viewBox="0 0 586.26 389.33" style="enable-background:new 0 0 586.26 389.33;" xml:space="preserve" width="586.260009765625" height="389.3299865722656">
<style type="text/css">
	.st0{fill:#1D3F74;}
	.st1{fill:#061933;}
	.st2{fill:#FFFFFF;}
	.st3{fill:#C12026;}
	.st4{fill:#0A1F35;}
	.st5{fill:#1B2B58;}
	.st6{fill:#D62027;}
</style>
<rect x="602.67" class="st0" width="586.26" height="389.33"/>
<g>
	<rect x="711.62" y="63.11" class="st1" width="50.67" height="193.33"/>
	<polygon class="st2" points="833.55,162.37 770.73,162.37 859.62,63.11 922.44,63.11  "/>
	<polygon class="st2" points="833.55,162.39 770.73,162.39 859.62,261.65 922.44,261.65  "/>
	<polygon class="st3" points="949.4,61.33 889.25,128.3 889.25,189.93 949.4,259.26  "/>
	<polygon class="st4" points="1050.73,63.11 1050.73,138.08 949.4,138.08 949.4,183.7 1050.73,183.7 1050.73,256.45 1101.7,256.45    1101.7,63.11  "/>
	<g>
		<path class="st2" d="M672.62,291.37h38v9.78h-12.78v39.61h-12.36v-39.61h-12.85V291.37z"/>
		<path class="st2" d="M719.77,291.44h22.21c5.17,0.07,11.6,0.14,16.14,5.03c2.31,2.58,3.91,6.5,3.91,10.97    c0,9.92-6.78,12.36-10.13,13.62l11.39,19.7h-13.62l-9.78-17.6h-7.75v17.6h-12.36V291.44z M732.13,300.66v13.34h10.2    c1.75-0.07,7.4-0.21,7.4-6.78c0-6.29-4.54-6.5-7.12-6.57H732.13z"/>
		<path class="st2" d="M799.33,291.44l18.16,49.32h-13.13l-2.44-7.89h-18.16l-2.44,7.89h-13.13l18.3-49.32H799.33z M792.7,303.18    c-0.63,2.52-1.33,5.1-2.03,7.61c-1.05,3.7-2.93,9.5-4.05,13.2h12.5L792.7,303.18z"/>
		<path class="st2" d="M826.08,291.44h12.08l10.69,18.16c3.91,6.92,5.1,9.15,7.4,13.48l-0.56-31.64h11.81v49.32h-12.08l-9.22-15.58    c-4.47-7.33-5.31-8.87-8.66-15.44l0.35,31.02h-11.81V291.44z"/>
		<path class="st2" d="M888.95,325.95c1.26,1.4,2.31,2.51,4.75,3.84c3.28,1.75,6.64,2.38,9.5,2.38c4.89,0,9.08-2.31,9.08-5.73    c0-3.91-4.96-4.54-8.59-5.03c-2.72-0.35-5.45-0.7-8.1-1.26c-3-0.63-13.27-2.79-13.27-13.41c0-12.71,11.32-16.49,19.84-16.49    c11.39,0,17.53,5.52,21.79,9.36l-9.08,6.5c-1.54-1.54-2.93-2.86-4.89-3.98c-1.75-0.98-4.89-2.17-8.03-2.17    c-4.89,0-7.33,2.79-7.33,5.17c0,3.77,4.19,4.33,6.29,4.61c5.24,0.63,12.29,1.96,15.09,2.93c5.66,2.1,8.52,6.5,8.52,12.08    c0,3.56-1.33,7.47-3.91,10.48c-4.47,5.17-11.6,6.64-18.51,6.64c-13.9,0-19.42-6.43-22.49-9.99L888.95,325.95z"/>
		<path class="st2" d="M938.34,291.44h19.84c8.1,0,15.3,0,19.63,6.22c1.89,2.79,2.79,6.78,2.79,10.13c0,2.72-0.56,5.38-1.68,7.68    c-4.26,8.8-13.34,9.01-20.05,9.15h-8.17v16.14h-12.36V291.44z M950.7,300.52v14.95h7.4c4.61,0,10.2-0.14,10.2-7.75    c0-7.19-6.22-7.19-9.78-7.19H950.7z"/>
		<path class="st2" d="M1014.34,342.16c-15.65,0-24.52-12.02-24.52-26.27c0-13.34,8.45-25.99,24.31-25.99    c2.93,0,6.01,0.42,9.01,1.47c15.09,5.24,16.07,21.65,16.07,25.01c0,8.52-3.91,16.21-9.36,20.61    C1025.03,340.97,1019.44,342.16,1014.34,342.16z M1022.86,303.81c-2.1-2.24-5.31-3.63-8.66-3.63c-7.47,0-12.22,6.57-12.22,15.51    c0,11.74,6.57,16.07,12.36,16.07c5.87,0,12.15-4.19,12.5-14.53C1027.05,312.05,1025.66,306.81,1022.86,303.81z"/>
		<path class="st2" d="M1050.59,291.44h22.21c5.17,0.07,11.6,0.14,16.14,5.03c2.31,2.58,3.91,6.5,3.91,10.97    c0,9.92-6.78,12.36-10.13,13.62l11.39,19.7h-13.62l-9.78-17.6h-7.75v17.6h-12.36V291.44z M1062.96,300.66v13.34h10.2    c1.75-0.07,7.4-0.21,7.4-6.78c0-6.29-4.54-6.5-7.12-6.57H1062.96z"/>
		<path class="st2" d="M1099.56,291.37h38v9.78h-12.78v39.61h-12.36v-39.61h-12.85V291.37z"/>
	</g>
</g>
<g>
	<rect x="108.96" y="63.11" class="st1" width="50.67" height="193.33"/>
	<polygon class="st0" points="230.88,162.37 168.07,162.37 256.96,63.11 319.77,63.11  "/>
	<polygon class="st0" points="230.88,162.39 168.07,162.39 256.96,261.65 319.77,261.65  "/>
	<polygon class="st3" points="346.73,61.33 286.59,128.3 286.59,189.93 346.73,259.26  "/>
	<polygon class="st4" points="448.07,63.11 448.07,138.08 346.73,138.08 346.73,183.7 448.07,183.7 448.07,256.45 499.03,256.45    499.03,63.11  "/>
	<g>
		<path class="st0" d="M69.95,291.37h38v9.78H95.17v39.61H82.8v-39.61H69.95V291.37z"/>
		<path class="st0" d="M117.1,291.44h22.21c5.17,0.07,11.6,0.14,16.14,5.03c2.31,2.58,3.91,6.5,3.91,10.97    c0,9.92-6.78,12.36-10.13,13.62l11.39,19.7H147l-9.78-17.6h-7.75v17.6H117.1V291.44z M129.46,300.66v13.34h10.2    c1.75-0.07,7.4-0.21,7.4-6.78c0-6.29-4.54-6.5-7.12-6.57H129.46z"/>
		<path class="st0" d="M196.66,291.44l18.16,49.32h-13.13l-2.44-7.89h-18.16l-2.44,7.89h-13.13l18.3-49.32H196.66z M190.03,303.18    c-0.63,2.52-1.33,5.1-2.03,7.61c-1.05,3.7-2.93,9.5-4.05,13.2h12.5L190.03,303.18z"/>
		<path class="st0" d="M223.42,291.44h12.08l10.69,18.16c3.91,6.92,5.1,9.15,7.4,13.48l-0.56-31.64h11.81v49.32h-12.08l-9.22-15.58    c-4.47-7.33-5.31-8.87-8.66-15.44l0.35,31.02h-11.81V291.44z"/>
		<path class="st0" d="M286.29,325.95c1.26,1.4,2.31,2.51,4.75,3.84c3.28,1.75,6.64,2.38,9.5,2.38c4.89,0,9.08-2.31,9.08-5.73    c0-3.91-4.96-4.54-8.59-5.03c-2.72-0.35-5.45-0.7-8.1-1.26c-3-0.63-13.27-2.79-13.27-13.41c0-12.71,11.32-16.49,19.84-16.49    c11.39,0,17.53,5.52,21.79,9.36l-9.08,6.5c-1.54-1.54-2.93-2.86-4.89-3.98c-1.75-0.98-4.89-2.17-8.03-2.17    c-4.89,0-7.33,2.79-7.33,5.17c0,3.77,4.19,4.33,6.29,4.61c5.24,0.63,12.29,1.96,15.09,2.93c5.66,2.1,8.52,6.5,8.52,12.08    c0,3.56-1.33,7.47-3.91,10.48c-4.47,5.17-11.6,6.64-18.51,6.64c-13.9,0-19.42-6.43-22.49-9.99L286.29,325.95z"/>
		<path class="st0" d="M335.67,291.44h19.84c8.1,0,15.3,0,19.63,6.22c1.89,2.79,2.79,6.78,2.79,10.13c0,2.72-0.56,5.38-1.68,7.68    c-4.26,8.8-13.34,9.01-20.05,9.15h-8.17v16.14h-12.36V291.44z M348.04,300.52v14.95h7.4c4.61,0,10.2-0.14,10.2-7.75    c0-7.19-6.22-7.19-9.78-7.19H348.04z"/>
		<path class="st0" d="M411.67,342.16c-15.65,0-24.52-12.02-24.52-26.27c0-13.34,8.45-25.99,24.31-25.99c2.93,0,6.01,0.42,9.01,1.47    c15.09,5.24,16.07,21.65,16.07,25.01c0,8.52-3.91,16.21-9.36,20.61C422.36,340.97,416.77,342.16,411.67,342.16z M420.19,303.81    c-2.1-2.24-5.31-3.63-8.66-3.63c-7.47,0-12.22,6.57-12.22,15.51c0,11.74,6.57,16.07,12.36,16.07c5.87,0,12.15-4.19,12.5-14.53    C424.39,312.05,422.99,306.81,420.19,303.81z"/>
		<path class="st0" d="M447.93,291.44h22.21c5.17,0.07,11.6,0.14,16.14,5.03c2.31,2.58,3.91,6.5,3.91,10.97    c0,9.92-6.78,12.36-10.13,13.62l11.39,19.7h-13.62l-9.78-17.6h-7.75v17.6h-12.36V291.44z M460.29,300.66v13.34h10.2    c1.75-0.07,7.4-0.21,7.4-6.78c0-6.29-4.54-6.5-7.12-6.57H460.29z"/>
		<path class="st0" d="M496.89,291.37h38v9.78h-12.78v39.61h-12.36v-39.61h-12.85V291.37z"/>
	</g>
</g>
<g>
	<g>
		<g>
			<g>
				<polygon class="st5" points="136.32,565.24 62.77,527.02 62.77,493.69 136.32,531.91     "/>
				<polygon class="st5" points="136.32,610.8 62.77,572.58 62.77,539.24 136.32,577.47     "/>
				<polygon class="st5" points="62.55,585.24 62.55,687.47 136.1,646.58 136.1,624.13     "/>
			</g>
		</g>
		<g>
			<g>
				<polygon class="st6" points="-10.78,565.24 62.78,527.02 62.78,493.69 -10.78,531.91     "/>
				<polygon class="st6" points="-10.78,610.8 62.78,572.58 62.78,539.24 -10.78,577.47     "/>
				<polygon class="st6" points="63,585.24 63,687.47 -10.56,646.58 -10.56,624.13     "/>
			</g>
		</g>
	</g>
	<polygon class="st5" points="287.74,595.32 325.07,595.32 259.59,518.58 257.52,518.58 310.85,461.99 273.51,461.99 221.66,517.01    221.66,461.99 189.36,461.99 189.36,595.32 221.66,595.32 221.66,556.63 239.01,538.22  "/>
	<rect x="341.07" y="461.99" class="st5" width="30.52" height="133.33"/>
	<polygon class="st5" points="520.03,461.99 474.4,540.8 426.99,461.99 396.48,461.99 396.48,595.32 426.99,595.32 426.99,516.21    466.4,576.95 483.88,576.95 520.03,519.76 520.03,595.32 550.55,595.32 550.55,461.99  "/>
	<polygon class="st5" points="679.44,461.99 679.44,510.87 618.99,510.87 618.99,461.99 587.59,461.99 587.59,595.32 618.99,595.32    618.99,541.39 679.44,541.39 679.44,595.32 710.85,595.32 710.85,461.99  "/>
	<g>
		<path class="st5" d="M941.44,459.54c-38.17,0-69.11,30.94-69.11,69.11c0,38.17,30.94,69.11,69.11,69.11s69.11-30.94,69.11-69.11    C1010.55,490.48,979.61,459.54,941.44,459.54z M941.44,566.36c-20.82,0-37.7-16.88-37.7-37.7c0-20.82,16.88-37.7,37.7-37.7    s37.7,16.88,37.7,37.7C979.14,549.48,962.26,566.36,941.44,566.36z"/>
	</g>
	<path class="st5" d="M849.81,594.13h31.41l-60.15-129.78h-1.04h-30.37h-1.04l-60.15,129.78h31.41l9.89-21.33h70.15L849.81,594.13z    M782.44,545.47l22.41-48.35l22.41,48.35H782.44z"/>
	<g>
		<path class="st5" d="M183.4,614.48h44.18v11.37h-14.86v46.05h-14.37v-46.05H183.4V614.48z"/>
		<path class="st5" d="M238.22,614.56h25.82c6.01,0.08,13.48,0.16,18.76,5.85c2.68,3.01,4.55,7.55,4.55,12.75    c0,11.53-7.88,14.37-11.78,15.84l13.24,22.9h-15.84l-11.37-20.46h-9.01v20.46h-14.37V614.56z M252.59,625.28v15.51h11.86    c2.03-0.08,8.61-0.24,8.61-7.88c0-7.31-5.28-7.55-8.28-7.63H252.59z"/>
		<path class="st5" d="M330.72,614.56l21.11,57.33h-15.27l-2.84-9.18h-21.11l-2.84,9.18H294.5l21.28-57.33H330.72z M323,628.21    c-0.73,2.92-1.54,5.93-2.36,8.85c-1.22,4.3-3.41,11.04-4.71,15.35h14.54L323,628.21z"/>
		<path class="st5" d="M361.82,614.56h14.05l12.43,21.11c4.55,8.04,5.93,10.64,8.61,15.67l-0.65-36.79h13.72v57.33h-14.05    l-10.72-18.11c-5.2-8.53-6.17-10.31-10.07-17.95l0.41,36.06h-13.72V614.56z"/>
		<path class="st5" d="M434.9,654.68c1.46,1.62,2.68,2.92,5.52,4.47c3.82,2.03,7.71,2.76,11.04,2.76c5.68,0,10.56-2.68,10.56-6.66    c0-4.55-5.77-5.28-9.99-5.85c-3.17-0.41-6.33-0.81-9.42-1.46c-3.49-0.73-15.43-3.25-15.43-15.59c0-14.78,13.16-19.17,23.06-19.17    c13.24,0,20.38,6.42,25.34,10.88l-10.56,7.55c-1.79-1.79-3.41-3.33-5.68-4.63c-2.03-1.14-5.68-2.52-9.34-2.52    c-5.68,0-8.53,3.25-8.53,6.01c0,4.39,4.87,5.03,7.31,5.36c6.09,0.73,14.29,2.27,17.54,3.41c6.58,2.44,9.91,7.55,9.91,14.05    c0,4.14-1.54,8.69-4.55,12.18c-5.2,6.01-13.48,7.71-21.52,7.71c-16.16,0-22.58-7.47-26.15-11.61L434.9,654.68z"/>
		<path class="st5" d="M492.32,614.56h23.06c9.42,0,17.78,0,22.82,7.23c2.19,3.25,3.25,7.88,3.25,11.78c0,3.17-0.65,6.25-1.95,8.93    c-4.95,10.23-15.51,10.48-23.31,10.64h-9.5v18.76h-14.37V614.56z M506.69,625.12v17.38h8.61c5.36,0,11.86-0.16,11.86-9.01    c0-8.36-7.23-8.36-11.37-8.36H506.69z"/>
		<path class="st5" d="M580.67,673.52c-18.19,0-28.5-13.97-28.5-30.53c0-15.51,9.83-30.21,28.26-30.21c3.41,0,6.98,0.49,10.48,1.71    c17.54,6.09,18.68,25.17,18.68,29.07c0,9.91-4.55,18.84-10.88,23.96C593.1,672.14,586.6,673.52,580.67,673.52z M590.58,628.94    c-2.44-2.6-6.17-4.22-10.07-4.22c-8.69,0-14.21,7.63-14.21,18.03c0,13.64,7.63,18.68,14.37,18.68c6.82,0,14.13-4.87,14.54-16.89    C595.45,638.52,593.83,632.43,590.58,628.94z"/>
		<path class="st5" d="M622.82,614.56h25.82c6.01,0.08,13.48,0.16,18.76,5.85c2.68,3.01,4.55,7.55,4.55,12.75    c0,11.53-7.88,14.37-11.78,15.84l13.24,22.9h-15.84l-11.37-20.46h-9.01v20.46h-14.37V614.56z M637.19,625.28v15.51h11.86    c2.03-0.08,8.61-0.24,8.61-7.88c0-7.31-5.28-7.55-8.28-7.63H637.19z"/>
		<path class="st5" d="M679.74,614.48h44.18v11.37h-14.86v46.05h-14.37v-46.05h-14.94V614.48z"/>
	</g>
</g>
<g>
	<g>
		<path class="st5" d="M1181.88,647.76h-15.7c-2.09,0-3.78-1.69-3.78-3.78v-9.78c0-0.78,0.63-1.41,1.41-1.41h16.3    c0.78,0,1.41-0.63,1.41-1.41v-29.3c0-2.14-1.27-4.08-3.24-4.92c-6.65-2.87-22-9.36-31.09-12.08c-0.32-0.1-0.59-0.3-0.77-0.58    l-20.08-30.87c-0.61-0.94,0.06-2.17,1.18-2.17h1.92c0.78,0,1.41-0.63,1.41-1.41v0c0-0.78-0.63-1.41-1.41-1.41h-4.91    c-0.48,0-0.93-0.24-1.18-0.65c-3.04-4.79-24.51-34.52-87.9-30.99c-0.75,0.04-1.34,0.66-1.34,1.41v111.63    c0,0.78,0.63,1.41,1.41,1.41h75.89c0.02,0,0.05,0,0.07,0c1.26-0.07,40.9-1.91,41.73,41.57c0.01,0.77,0.63,1.39,1.4,1.39h25.27    c0.23,0,0.45-0.05,0.66-0.16c0.81-0.44,2.76-1.92,2.76-5.91v-19.19C1183.29,648.39,1182.66,647.76,1181.88,647.76z     M1084.66,617.02c-2.88,0-5.22-2.34-5.22-5.22s2.34-5.22,5.22-5.22s5.22,2.34,5.22,5.22S1087.55,617.02,1084.66,617.02z     M1108.7,577.52c0,0.62-0.57,1.08-1.17,0.94l-27.63-6.23c-0.44-0.1-0.75-0.49-0.75-0.94v-15.3c0-0.53,0.43-0.96,0.96-0.96h27.63    c0.53,0,0.96,0.43,0.96,0.96V577.52z M1109.36,552.06c-5.48,0-30.43,0-30.43,0s-3.18-0.33-3.18,3.18s0,67.34,0,67.34    s-0.49,2.06-2.71,2.06c-2.22,0-2.39-2.28-2.39-2.28v-69.78c0,0-0.22-6.33,7.22-6.33s35.77,0,35.77,0    S1114.85,552.06,1109.36,552.06z M1135.77,580.77c0,1.28-1.17,2.23-2.42,1.98l-19.78-4.03c-0.94-0.19-1.61-1.02-1.61-1.98v-23.39    c0-0.63,0.29-1.23,0.79-1.61c2.06-1.55,4.06-1.4,5.16-1.13c0.52,0.13,0.96,0.45,1.24,0.9l16.32,26.48c0.2,0.32,0.3,0.68,0.3,1.06    V580.77z"/>
	</g>
	<path class="st5" d="M1082.03,677.69c-0.11,0.63-0.95,0.57-0.98-0.06c-0.18-3.51,0.04-7.08,0.54-10.61   c0.75-4.86,2.21-9.71,4.66-14.12c2.46-4.38,6.02-8.27,10.33-10.74c2.12-1.32,4.43-2.11,6.74-2.82c0.01,0,0.02-0.01,0.04-0.01   c1.16-0.25,2.33-0.58,3.5-0.69l1.77-0.23c0.59-0.06,1.17-0.07,1.76-0.1c4.66-0.14,9.38,0.35,13.91,2.06   c2.26,0.81,4.44,1.95,6.46,3.34c1.02,0.68,1.97,1.47,2.9,2.27c0.01,0.01,0.02,0.01,0.02,0.02c0.89,0.86,1.78,1.71,2.58,2.67   c3.26,3.78,5.55,8.35,6.92,13.08c0.96,3.46,1.57,7.01,1.68,10.55c0.02,0.63-0.81,0.78-0.97,0.17c-0.88-3.33-2.01-6.52-3.44-9.49   c-1.94-4.09-4.44-7.75-7.47-10.6c-6.05-5.81-14.24-7.87-22.38-7.52c-4.03,0.13-7.96,0.99-11.46,2.82   c-1.74,0.93-3.42,2.02-4.91,3.41c-1.5,1.38-2.88,2.95-4.11,4.69c-2.45,3.51-4.3,7.65-5.71,12.02   C1083.4,670.98,1082.61,674.29,1082.03,677.69z"/>
	<path class="st5" d="M1089.88,638.28l-4.07,4.45H973.66c0,0-2,0.07-2,2.3s0,30.11,0,30.11h-2.11c0,0-1.22-0.56-2-3.89   c-0.78-3.33-5.22-28.67-31.22-28.67s-28.44,26.22-28.44,28.44h-1.63c0,0-1.19-26.67-27.26-26.67c-26.07,0-26.37,28.3-26.37,28.3   h-2.96c0,0-1.19-17.93,13.93-28.15c0,0,3.33-0.89,2.59-3.41c-0.74-2.52-4.96-1.33-6.89-0.15c-1.93,1.19-14.81,10.67-14.81,30.07   c0,0-1.7,2.33-3.59,0v-29.44c0,0,0.33-3.81-3.81-3.81s-3.7,4.52-3.7,4.52v12.89h-4V638.8h-2.07v-4.07l-2.81-2v-2.22l2.74-1.63   v-2.37h2.67v-2.89h195.78v8.19l7.78,6.48H1089.88z"/>
	<rect x="979.14" y="668.58" class="st5" width="96.07" height="10.44"/>
	<path class="st5" d="M1077.36,649.37h-98.22v10.98h98.22c-0.07-3.89,4.3-8.11,4.3-8.11v-2.87H1077.36z"/>
	<g>
		<g>
			<path class="st5" d="M1112.92,692.21c-11.52,0-20.89-9.37-20.89-20.89s9.37-20.89,20.89-20.89s20.89,9.37,20.89,20.89     S1124.45,692.21,1112.92,692.21z M1112.92,658.42c-7.11,0-12.89,5.78-12.89,12.89s5.78,12.89,12.89,12.89s12.89-5.78,12.89-12.89     S1120.03,658.42,1112.92,658.42z"/>
		</g>
		<circle class="st5" cx="1112.92" cy="671.32" r="3.41"/>
	</g>
	<g>
		<g>
			<path class="st5" d="M936.29,692.21c-11.52,0-20.89-9.37-20.89-20.89s9.37-20.89,20.89-20.89s20.89,9.37,20.89,20.89     S947.81,692.21,936.29,692.21z M936.29,658.42c-7.11,0-12.89,5.78-12.89,12.89s5.78,12.89,12.89,12.89s12.89-5.78,12.89-12.89     S943.4,658.42,936.29,658.42z"/>
		</g>
		<circle class="st5" cx="936.29" cy="671.32" r="3.41"/>
	</g>
	<g>
		<g>
			<path class="st5" d="M879.1,692.21c-11.52,0-20.89-9.37-20.89-20.89s9.37-20.89,20.89-20.89s20.89,9.37,20.89,20.89     S890.62,692.21,879.1,692.21z M879.1,658.42c-7.11,0-12.89,5.78-12.89,12.89s5.78,12.89,12.89,12.89s12.89-5.78,12.89-12.89     S886.21,658.42,879.1,658.42z"/>
		</g>
		<circle class="st5" cx="879.1" cy="671.32" r="3.41"/>
	</g>
</g>
</svg>